<mxfile host="app.diagrams.net" agent="Mozilla/5.0 (Windows NT 10.0; Win64; x64; rv:128.0) Gecko/20100101 Firefox/128.0" version="24.7.6">
  <diagram id="C5RBs43oDa-KdzZeNtuy" name="Page-1">
    <mxGraphModel dx="7000" dy="3847" grid="1" gridSize="10" guides="1" tooltips="1" connect="1" arrows="1" fold="1" page="1" pageScale="1" pageWidth="827" pageHeight="1169" math="0" shadow="0">
      <root>
        <mxCell id="WIyWlLk6GJQsqaUBKTNV-0" />
        <mxCell id="WIyWlLk6GJQsqaUBKTNV-1" parent="WIyWlLk6GJQsqaUBKTNV-0" />
        <mxCell id="tbi-7l_ZZroE0bv09tCr-11" value="" style="edgeStyle=orthogonalEdgeStyle;rounded=0;orthogonalLoop=1;jettySize=auto;html=1;" edge="1" parent="WIyWlLk6GJQsqaUBKTNV-1" source="tbi-7l_ZZroE0bv09tCr-3" target="tbi-7l_ZZroE0bv09tCr-10">
          <mxGeometry relative="1" as="geometry" />
        </mxCell>
        <mxCell id="tbi-7l_ZZroE0bv09tCr-3" value="start" style="strokeWidth=2;html=1;shape=mxgraph.flowchart.terminator;whiteSpace=wrap;" vertex="1" parent="WIyWlLk6GJQsqaUBKTNV-1">
          <mxGeometry x="85" y="10" width="100" height="60" as="geometry" />
        </mxCell>
        <mxCell id="tbi-7l_ZZroE0bv09tCr-4" value="end" style="strokeWidth=2;html=1;shape=mxgraph.flowchart.terminator;whiteSpace=wrap;" vertex="1" parent="WIyWlLk6GJQsqaUBKTNV-1">
          <mxGeometry x="425.51" y="2270" width="100" height="60" as="geometry" />
        </mxCell>
        <mxCell id="tbi-7l_ZZroE0bv09tCr-13" value="" style="edgeStyle=orthogonalEdgeStyle;rounded=0;orthogonalLoop=1;jettySize=auto;html=1;" edge="1" parent="WIyWlLk6GJQsqaUBKTNV-1" source="tbi-7l_ZZroE0bv09tCr-10" target="tbi-7l_ZZroE0bv09tCr-12">
          <mxGeometry relative="1" as="geometry" />
        </mxCell>
        <mxCell id="tbi-7l_ZZroE0bv09tCr-10" value="initialize variables" style="whiteSpace=wrap;html=1;strokeWidth=2;" vertex="1" parent="WIyWlLk6GJQsqaUBKTNV-1">
          <mxGeometry x="75" y="110" width="120" height="60" as="geometry" />
        </mxCell>
        <mxCell id="tbi-7l_ZZroE0bv09tCr-15" value="" style="edgeStyle=orthogonalEdgeStyle;rounded=0;orthogonalLoop=1;jettySize=auto;html=1;" edge="1" parent="WIyWlLk6GJQsqaUBKTNV-1" source="tbi-7l_ZZroE0bv09tCr-12" target="tbi-7l_ZZroE0bv09tCr-14">
          <mxGeometry relative="1" as="geometry" />
        </mxCell>
        <mxCell id="tbi-7l_ZZroE0bv09tCr-12" value="define functions" style="whiteSpace=wrap;html=1;strokeWidth=2;" vertex="1" parent="WIyWlLk6GJQsqaUBKTNV-1">
          <mxGeometry x="75" y="200" width="120" height="60" as="geometry" />
        </mxCell>
        <mxCell id="tbi-7l_ZZroE0bv09tCr-19" value="" style="edgeStyle=orthogonalEdgeStyle;rounded=0;orthogonalLoop=1;jettySize=auto;html=1;" edge="1" parent="WIyWlLk6GJQsqaUBKTNV-1" source="tbi-7l_ZZroE0bv09tCr-14" target="tbi-7l_ZZroE0bv09tCr-18">
          <mxGeometry relative="1" as="geometry" />
        </mxCell>
        <mxCell id="tbi-7l_ZZroE0bv09tCr-14" value="set up display" style="shape=parallelogram;perimeter=parallelogramPerimeter;whiteSpace=wrap;html=1;fixedSize=1;strokeWidth=2;" vertex="1" parent="WIyWlLk6GJQsqaUBKTNV-1">
          <mxGeometry x="75" y="290" width="120" height="60" as="geometry" />
        </mxCell>
        <mxCell id="tbi-7l_ZZroE0bv09tCr-21" value="" style="edgeStyle=orthogonalEdgeStyle;rounded=0;orthogonalLoop=1;jettySize=auto;html=1;" edge="1" parent="WIyWlLk6GJQsqaUBKTNV-1" source="tbi-7l_ZZroE0bv09tCr-18" target="tbi-7l_ZZroE0bv09tCr-20">
          <mxGeometry relative="1" as="geometry" />
        </mxCell>
        <mxCell id="tbi-7l_ZZroE0bv09tCr-18" value="show display" style="shape=parallelogram;perimeter=parallelogramPerimeter;whiteSpace=wrap;html=1;fixedSize=1;strokeWidth=2;" vertex="1" parent="WIyWlLk6GJQsqaUBKTNV-1">
          <mxGeometry x="75" y="430" width="120" height="60" as="geometry" />
        </mxCell>
        <mxCell id="tbi-7l_ZZroE0bv09tCr-23" value="yes" style="edgeStyle=orthogonalEdgeStyle;rounded=0;orthogonalLoop=1;jettySize=auto;html=1;" edge="1" parent="WIyWlLk6GJQsqaUBKTNV-1" source="tbi-7l_ZZroE0bv09tCr-20" target="tbi-7l_ZZroE0bv09tCr-22">
          <mxGeometry relative="1" as="geometry" />
        </mxCell>
        <mxCell id="tbi-7l_ZZroE0bv09tCr-45" value="yes" style="edgeStyle=orthogonalEdgeStyle;rounded=0;orthogonalLoop=1;jettySize=auto;html=1;" edge="1" parent="WIyWlLk6GJQsqaUBKTNV-1" source="tbi-7l_ZZroE0bv09tCr-20" target="tbi-7l_ZZroE0bv09tCr-44">
          <mxGeometry relative="1" as="geometry" />
        </mxCell>
        <mxCell id="tbi-7l_ZZroE0bv09tCr-20" value="&lt;div&gt;is a new&amp;nbsp;&lt;/div&gt;&lt;div&gt;selection made&lt;/div&gt;" style="rhombus;whiteSpace=wrap;html=1;strokeWidth=2;" vertex="1" parent="WIyWlLk6GJQsqaUBKTNV-1">
          <mxGeometry x="80" y="560" width="110" height="80" as="geometry" />
        </mxCell>
        <mxCell id="tbi-7l_ZZroE0bv09tCr-25" value="" style="edgeStyle=orthogonalEdgeStyle;rounded=0;orthogonalLoop=1;jettySize=auto;html=1;" edge="1" parent="WIyWlLk6GJQsqaUBKTNV-1" source="tbi-7l_ZZroE0bv09tCr-22" target="tbi-7l_ZZroE0bv09tCr-24">
          <mxGeometry relative="1" as="geometry" />
        </mxCell>
        <mxCell id="tbi-7l_ZZroE0bv09tCr-22" value="update labels" style="shape=parallelogram;perimeter=parallelogramPerimeter;whiteSpace=wrap;html=1;fixedSize=1;strokeWidth=2;" vertex="1" parent="WIyWlLk6GJQsqaUBKTNV-1">
          <mxGeometry x="240" y="570" width="120" height="60" as="geometry" />
        </mxCell>
        <mxCell id="tbi-7l_ZZroE0bv09tCr-26" value="yes" style="edgeStyle=orthogonalEdgeStyle;rounded=0;orthogonalLoop=1;jettySize=auto;html=1;entryX=0.5;entryY=1;entryDx=0;entryDy=0;" edge="1" parent="WIyWlLk6GJQsqaUBKTNV-1" source="tbi-7l_ZZroE0bv09tCr-24" target="tbi-7l_ZZroE0bv09tCr-29">
          <mxGeometry relative="1" as="geometry">
            <mxPoint x="462.5" y="490" as="targetPoint" />
          </mxGeometry>
        </mxCell>
        <mxCell id="tbi-7l_ZZroE0bv09tCr-42" value="no" style="edgeStyle=orthogonalEdgeStyle;rounded=0;orthogonalLoop=1;jettySize=auto;html=1;" edge="1" parent="WIyWlLk6GJQsqaUBKTNV-1" source="tbi-7l_ZZroE0bv09tCr-24" target="tbi-7l_ZZroE0bv09tCr-31">
          <mxGeometry relative="1" as="geometry" />
        </mxCell>
        <mxCell id="tbi-7l_ZZroE0bv09tCr-24" value="&lt;div&gt;is this this the first time&lt;/div&gt;&lt;div&gt;this item is added?&lt;br&gt;&lt;/div&gt;" style="rhombus;whiteSpace=wrap;html=1;strokeWidth=2;" vertex="1" parent="WIyWlLk6GJQsqaUBKTNV-1">
          <mxGeometry x="390" y="550" width="145" height="100" as="geometry" />
        </mxCell>
        <mxCell id="tbi-7l_ZZroE0bv09tCr-36" style="edgeStyle=orthogonalEdgeStyle;rounded=0;orthogonalLoop=1;jettySize=auto;html=1;" edge="1" parent="WIyWlLk6GJQsqaUBKTNV-1" source="tbi-7l_ZZroE0bv09tCr-29">
          <mxGeometry relative="1" as="geometry">
            <mxPoint x="140" y="380" as="targetPoint" />
            <Array as="points">
              <mxPoint x="443" y="380" />
            </Array>
          </mxGeometry>
        </mxCell>
        <mxCell id="tbi-7l_ZZroE0bv09tCr-29" value="&lt;div&gt;make a new label&lt;/div&gt;&lt;div&gt;for that item in cart&lt;/div&gt;" style="shape=parallelogram;perimeter=parallelogramPerimeter;whiteSpace=wrap;html=1;fixedSize=1;strokeWidth=2;" vertex="1" parent="WIyWlLk6GJQsqaUBKTNV-1">
          <mxGeometry x="395" y="430" width="135" height="60" as="geometry" />
        </mxCell>
        <mxCell id="tbi-7l_ZZroE0bv09tCr-35" value="yes" style="edgeStyle=orthogonalEdgeStyle;rounded=0;orthogonalLoop=1;jettySize=auto;html=1;" edge="1" parent="WIyWlLk6GJQsqaUBKTNV-1" source="tbi-7l_ZZroE0bv09tCr-31" target="tbi-7l_ZZroE0bv09tCr-33">
          <mxGeometry relative="1" as="geometry" />
        </mxCell>
        <mxCell id="tbi-7l_ZZroE0bv09tCr-43" value="no" style="edgeStyle=orthogonalEdgeStyle;rounded=0;orthogonalLoop=1;jettySize=auto;html=1;" edge="1" parent="WIyWlLk6GJQsqaUBKTNV-1" source="tbi-7l_ZZroE0bv09tCr-31">
          <mxGeometry relative="1" as="geometry">
            <mxPoint x="690" y="380" as="targetPoint" />
            <Array as="points">
              <mxPoint x="791" y="600" />
            </Array>
          </mxGeometry>
        </mxCell>
        <mxCell id="tbi-7l_ZZroE0bv09tCr-31" value="is the item now 0" style="rhombus;whiteSpace=wrap;html=1;strokeWidth=2;" vertex="1" parent="WIyWlLk6GJQsqaUBKTNV-1">
          <mxGeometry x="600" y="550" width="145" height="100" as="geometry" />
        </mxCell>
        <mxCell id="tbi-7l_ZZroE0bv09tCr-37" style="edgeStyle=orthogonalEdgeStyle;rounded=0;orthogonalLoop=1;jettySize=auto;html=1;" edge="1" parent="WIyWlLk6GJQsqaUBKTNV-1" source="tbi-7l_ZZroE0bv09tCr-33">
          <mxGeometry relative="1" as="geometry">
            <mxPoint x="440" y="380" as="targetPoint" />
            <Array as="points">
              <mxPoint x="688" y="380" />
            </Array>
          </mxGeometry>
        </mxCell>
        <mxCell id="tbi-7l_ZZroE0bv09tCr-33" value="&lt;div&gt;remove the&amp;nbsp;&lt;/div&gt;&lt;div&gt;coresponding&amp;nbsp;&lt;/div&gt;&lt;div&gt;lable in cart&lt;/div&gt;" style="shape=parallelogram;perimeter=parallelogramPerimeter;whiteSpace=wrap;html=1;fixedSize=1;strokeWidth=2;" vertex="1" parent="WIyWlLk6GJQsqaUBKTNV-1">
          <mxGeometry x="605" y="430" width="135" height="60" as="geometry" />
        </mxCell>
        <mxCell id="tbi-7l_ZZroE0bv09tCr-47" value="yes" style="edgeStyle=orthogonalEdgeStyle;rounded=0;orthogonalLoop=1;jettySize=auto;html=1;" edge="1" parent="WIyWlLk6GJQsqaUBKTNV-1" source="tbi-7l_ZZroE0bv09tCr-44" target="tbi-7l_ZZroE0bv09tCr-46">
          <mxGeometry relative="1" as="geometry" />
        </mxCell>
        <mxCell id="tbi-7l_ZZroE0bv09tCr-50" value="" style="edgeStyle=orthogonalEdgeStyle;rounded=0;orthogonalLoop=1;jettySize=auto;html=1;" edge="1" parent="WIyWlLk6GJQsqaUBKTNV-1" source="tbi-7l_ZZroE0bv09tCr-44" target="tbi-7l_ZZroE0bv09tCr-49">
          <mxGeometry relative="1" as="geometry" />
        </mxCell>
        <mxCell id="tbi-7l_ZZroE0bv09tCr-44" value="is new appearance option selected" style="rhombus;whiteSpace=wrap;html=1;strokeWidth=2;" vertex="1" parent="WIyWlLk6GJQsqaUBKTNV-1">
          <mxGeometry x="80" y="720" width="110" height="80" as="geometry" />
        </mxCell>
        <mxCell id="tbi-7l_ZZroE0bv09tCr-48" style="edgeStyle=orthogonalEdgeStyle;rounded=0;orthogonalLoop=1;jettySize=auto;html=1;" edge="1" parent="WIyWlLk6GJQsqaUBKTNV-1" source="tbi-7l_ZZroE0bv09tCr-46">
          <mxGeometry relative="1" as="geometry">
            <mxPoint x="790" y="600" as="targetPoint" />
          </mxGeometry>
        </mxCell>
        <mxCell id="tbi-7l_ZZroE0bv09tCr-46" value="&lt;div&gt;update to&amp;nbsp;&lt;/div&gt;&lt;div&gt;new settings&lt;/div&gt;" style="shape=parallelogram;perimeter=parallelogramPerimeter;whiteSpace=wrap;html=1;fixedSize=1;strokeWidth=2;" vertex="1" parent="WIyWlLk6GJQsqaUBKTNV-1">
          <mxGeometry x="402.5" y="730" width="120" height="60" as="geometry" />
        </mxCell>
        <mxCell id="tbi-7l_ZZroE0bv09tCr-52" value="yes" style="edgeStyle=orthogonalEdgeStyle;rounded=0;orthogonalLoop=1;jettySize=auto;html=1;" edge="1" parent="WIyWlLk6GJQsqaUBKTNV-1" source="tbi-7l_ZZroE0bv09tCr-49" target="tbi-7l_ZZroE0bv09tCr-51">
          <mxGeometry relative="1" as="geometry" />
        </mxCell>
        <mxCell id="tbi-7l_ZZroE0bv09tCr-58" value="no" style="edgeStyle=orthogonalEdgeStyle;rounded=0;orthogonalLoop=1;jettySize=auto;html=1;" edge="1" parent="WIyWlLk6GJQsqaUBKTNV-1" source="tbi-7l_ZZroE0bv09tCr-49">
          <mxGeometry relative="1" as="geometry">
            <mxPoint x="790" y="920" as="targetPoint" />
          </mxGeometry>
        </mxCell>
        <mxCell id="tbi-7l_ZZroE0bv09tCr-49" value="is checkout button pressed" style="rhombus;whiteSpace=wrap;html=1;strokeWidth=2;" vertex="1" parent="WIyWlLk6GJQsqaUBKTNV-1">
          <mxGeometry x="67.5" y="880" width="135" height="80" as="geometry" />
        </mxCell>
        <mxCell id="tbi-7l_ZZroE0bv09tCr-56" value="" style="edgeStyle=orthogonalEdgeStyle;rounded=0;orthogonalLoop=1;jettySize=auto;html=1;" edge="1" parent="WIyWlLk6GJQsqaUBKTNV-1" source="tbi-7l_ZZroE0bv09tCr-51" target="tbi-7l_ZZroE0bv09tCr-55">
          <mxGeometry relative="1" as="geometry" />
        </mxCell>
        <mxCell id="tbi-7l_ZZroE0bv09tCr-51" value="display chekcout window" style="shape=parallelogram;perimeter=parallelogramPerimeter;whiteSpace=wrap;html=1;fixedSize=1;strokeWidth=2;" vertex="1" parent="WIyWlLk6GJQsqaUBKTNV-1">
          <mxGeometry x="75" y="1010" width="120" height="60" as="geometry" />
        </mxCell>
        <mxCell id="tbi-7l_ZZroE0bv09tCr-57" value="yes" style="edgeStyle=orthogonalEdgeStyle;rounded=0;orthogonalLoop=1;jettySize=auto;html=1;" edge="1" parent="WIyWlLk6GJQsqaUBKTNV-1" source="tbi-7l_ZZroE0bv09tCr-55">
          <mxGeometry relative="1" as="geometry">
            <mxPoint x="790" y="760" as="targetPoint" />
          </mxGeometry>
        </mxCell>
        <mxCell id="tbi-7l_ZZroE0bv09tCr-60" value="no" style="edgeStyle=orthogonalEdgeStyle;rounded=0;orthogonalLoop=1;jettySize=auto;html=1;" edge="1" parent="WIyWlLk6GJQsqaUBKTNV-1" source="tbi-7l_ZZroE0bv09tCr-55" target="tbi-7l_ZZroE0bv09tCr-59">
          <mxGeometry relative="1" as="geometry" />
        </mxCell>
        <mxCell id="tbi-7l_ZZroE0bv09tCr-55" value="is back button pressed" style="rhombus;whiteSpace=wrap;html=1;strokeWidth=2;" vertex="1" parent="WIyWlLk6GJQsqaUBKTNV-1">
          <mxGeometry x="414" y="1000" width="105" height="80" as="geometry" />
        </mxCell>
        <mxCell id="tbi-7l_ZZroE0bv09tCr-62" value="yes" style="edgeStyle=orthogonalEdgeStyle;rounded=0;orthogonalLoop=1;jettySize=auto;html=1;" edge="1" parent="WIyWlLk6GJQsqaUBKTNV-1" source="tbi-7l_ZZroE0bv09tCr-59" target="tbi-7l_ZZroE0bv09tCr-61">
          <mxGeometry relative="1" as="geometry" />
        </mxCell>
        <mxCell id="tbi-7l_ZZroE0bv09tCr-63" value="no" style="edgeStyle=orthogonalEdgeStyle;rounded=0;orthogonalLoop=1;jettySize=auto;html=1;entryX=0.5;entryY=1;entryDx=0;entryDy=0;" edge="1" parent="WIyWlLk6GJQsqaUBKTNV-1" source="tbi-7l_ZZroE0bv09tCr-59" target="tbi-7l_ZZroE0bv09tCr-51">
          <mxGeometry relative="1" as="geometry" />
        </mxCell>
        <mxCell id="tbi-7l_ZZroE0bv09tCr-59" value="is continue button pressed" style="rhombus;whiteSpace=wrap;html=1;strokeWidth=2;" vertex="1" parent="WIyWlLk6GJQsqaUBKTNV-1">
          <mxGeometry x="415.5" y="1130" width="103.5" height="80" as="geometry" />
        </mxCell>
        <mxCell id="tbi-7l_ZZroE0bv09tCr-65" value="" style="edgeStyle=orthogonalEdgeStyle;rounded=0;orthogonalLoop=1;jettySize=auto;html=1;" edge="1" parent="WIyWlLk6GJQsqaUBKTNV-1" source="tbi-7l_ZZroE0bv09tCr-61" target="tbi-7l_ZZroE0bv09tCr-64">
          <mxGeometry relative="1" as="geometry" />
        </mxCell>
        <mxCell id="tbi-7l_ZZroE0bv09tCr-61" value="display card options" style="shape=parallelogram;perimeter=parallelogramPerimeter;whiteSpace=wrap;html=1;fixedSize=1;strokeWidth=2;" vertex="1" parent="WIyWlLk6GJQsqaUBKTNV-1">
          <mxGeometry x="401.25" y="1260" width="133.75" height="60" as="geometry" />
        </mxCell>
        <mxCell id="tbi-7l_ZZroE0bv09tCr-66" value="no" style="edgeStyle=orthogonalEdgeStyle;rounded=0;orthogonalLoop=1;jettySize=auto;html=1;" edge="1" parent="WIyWlLk6GJQsqaUBKTNV-1" source="tbi-7l_ZZroE0bv09tCr-64">
          <mxGeometry relative="1" as="geometry">
            <mxPoint x="470" y="1230" as="targetPoint" />
            <Array as="points">
              <mxPoint x="135" y="1230" />
              <mxPoint x="410" y="1230" />
            </Array>
          </mxGeometry>
        </mxCell>
        <mxCell id="tbi-7l_ZZroE0bv09tCr-70" value="" style="edgeStyle=orthogonalEdgeStyle;rounded=0;orthogonalLoop=1;jettySize=auto;html=1;" edge="1" parent="WIyWlLk6GJQsqaUBKTNV-1" source="tbi-7l_ZZroE0bv09tCr-64" target="tbi-7l_ZZroE0bv09tCr-69">
          <mxGeometry relative="1" as="geometry" />
        </mxCell>
        <mxCell id="tbi-7l_ZZroE0bv09tCr-64" value="in an option selected" style="rhombus;whiteSpace=wrap;html=1;strokeWidth=2;" vertex="1" parent="WIyWlLk6GJQsqaUBKTNV-1">
          <mxGeometry x="95.005" y="1250" width="80" height="80" as="geometry" />
        </mxCell>
        <mxCell id="tbi-7l_ZZroE0bv09tCr-72" value="" style="edgeStyle=orthogonalEdgeStyle;rounded=0;orthogonalLoop=1;jettySize=auto;html=1;" edge="1" parent="WIyWlLk6GJQsqaUBKTNV-1" source="tbi-7l_ZZroE0bv09tCr-69" target="tbi-7l_ZZroE0bv09tCr-71">
          <mxGeometry relative="1" as="geometry" />
        </mxCell>
        <mxCell id="tbi-7l_ZZroE0bv09tCr-69" value="get stored values for that card" style="whiteSpace=wrap;html=1;strokeWidth=2;" vertex="1" parent="WIyWlLk6GJQsqaUBKTNV-1">
          <mxGeometry x="75.005" y="1370" width="120" height="60" as="geometry" />
        </mxCell>
        <mxCell id="tbi-7l_ZZroE0bv09tCr-74" value="" style="edgeStyle=orthogonalEdgeStyle;rounded=0;orthogonalLoop=1;jettySize=auto;html=1;" edge="1" parent="WIyWlLk6GJQsqaUBKTNV-1" source="tbi-7l_ZZroE0bv09tCr-71" target="tbi-7l_ZZroE0bv09tCr-73">
          <mxGeometry relative="1" as="geometry" />
        </mxCell>
        <mxCell id="tbi-7l_ZZroE0bv09tCr-71" value="display stored values" style="shape=parallelogram;perimeter=parallelogramPerimeter;whiteSpace=wrap;html=1;fixedSize=1;strokeWidth=2;" vertex="1" parent="WIyWlLk6GJQsqaUBKTNV-1">
          <mxGeometry x="62.50999999999999" y="1490" width="145" height="60" as="geometry" />
        </mxCell>
        <mxCell id="tbi-7l_ZZroE0bv09tCr-75" value="no" style="edgeStyle=orthogonalEdgeStyle;rounded=0;orthogonalLoop=1;jettySize=auto;html=1;" edge="1" parent="WIyWlLk6GJQsqaUBKTNV-1" source="tbi-7l_ZZroE0bv09tCr-73">
          <mxGeometry relative="1" as="geometry">
            <mxPoint x="130" y="1470" as="targetPoint" />
            <Array as="points">
              <mxPoint x="30" y="1660" />
              <mxPoint x="30" y="1470" />
            </Array>
          </mxGeometry>
        </mxCell>
        <mxCell id="tbi-7l_ZZroE0bv09tCr-77" value="" style="edgeStyle=orthogonalEdgeStyle;rounded=0;orthogonalLoop=1;jettySize=auto;html=1;" edge="1" parent="WIyWlLk6GJQsqaUBKTNV-1" source="tbi-7l_ZZroE0bv09tCr-73" target="tbi-7l_ZZroE0bv09tCr-76">
          <mxGeometry relative="1" as="geometry" />
        </mxCell>
        <mxCell id="tbi-7l_ZZroE0bv09tCr-73" value="is pay button pressed?" style="rhombus;whiteSpace=wrap;html=1;strokeWidth=2;" vertex="1" parent="WIyWlLk6GJQsqaUBKTNV-1">
          <mxGeometry x="80.02" y="1620" width="109.98" height="80" as="geometry" />
        </mxCell>
        <mxCell id="tbi-7l_ZZroE0bv09tCr-78" value="no" style="edgeStyle=orthogonalEdgeStyle;rounded=0;orthogonalLoop=1;jettySize=auto;html=1;" edge="1" parent="WIyWlLk6GJQsqaUBKTNV-1" source="tbi-7l_ZZroE0bv09tCr-76">
          <mxGeometry relative="1" as="geometry">
            <mxPoint x="30" y="1660" as="targetPoint" />
          </mxGeometry>
        </mxCell>
        <mxCell id="tbi-7l_ZZroE0bv09tCr-80" value="yes" style="edgeStyle=orthogonalEdgeStyle;rounded=0;orthogonalLoop=1;jettySize=auto;html=1;" edge="1" parent="WIyWlLk6GJQsqaUBKTNV-1" source="tbi-7l_ZZroE0bv09tCr-76" target="tbi-7l_ZZroE0bv09tCr-79">
          <mxGeometry relative="1" as="geometry" />
        </mxCell>
        <mxCell id="tbi-7l_ZZroE0bv09tCr-76" value="are all fields filled?" style="rhombus;whiteSpace=wrap;html=1;strokeWidth=2;" vertex="1" parent="WIyWlLk6GJQsqaUBKTNV-1">
          <mxGeometry x="95.00999999999999" y="1780" width="80" height="80" as="geometry" />
        </mxCell>
        <mxCell id="tbi-7l_ZZroE0bv09tCr-83" value="yes" style="edgeStyle=orthogonalEdgeStyle;rounded=0;orthogonalLoop=1;jettySize=auto;html=1;" edge="1" parent="WIyWlLk6GJQsqaUBKTNV-1" source="tbi-7l_ZZroE0bv09tCr-79" target="tbi-7l_ZZroE0bv09tCr-82">
          <mxGeometry relative="1" as="geometry" />
        </mxCell>
        <mxCell id="tbi-7l_ZZroE0bv09tCr-94" value="no" style="edgeStyle=orthogonalEdgeStyle;rounded=0;orthogonalLoop=1;jettySize=auto;html=1;entryX=0.5;entryY=0;entryDx=0;entryDy=0;" edge="1" parent="WIyWlLk6GJQsqaUBKTNV-1" source="tbi-7l_ZZroE0bv09tCr-79" target="tbi-7l_ZZroE0bv09tCr-84">
          <mxGeometry relative="1" as="geometry" />
        </mxCell>
        <mxCell id="tbi-7l_ZZroE0bv09tCr-79" value="is save info checkbox elected?" style="rhombus;whiteSpace=wrap;html=1;strokeWidth=2;" vertex="1" parent="WIyWlLk6GJQsqaUBKTNV-1">
          <mxGeometry x="70.02" y="1940" width="129.98" height="80" as="geometry" />
        </mxCell>
        <mxCell id="tbi-7l_ZZroE0bv09tCr-85" value="" style="edgeStyle=orthogonalEdgeStyle;rounded=0;orthogonalLoop=1;jettySize=auto;html=1;" edge="1" parent="WIyWlLk6GJQsqaUBKTNV-1" source="tbi-7l_ZZroE0bv09tCr-82" target="tbi-7l_ZZroE0bv09tCr-84">
          <mxGeometry relative="1" as="geometry" />
        </mxCell>
        <mxCell id="tbi-7l_ZZroE0bv09tCr-82" value="save info to file" style="shape=parallelogram;perimeter=parallelogramPerimeter;whiteSpace=wrap;html=1;fixedSize=1;strokeWidth=2;" vertex="1" parent="WIyWlLk6GJQsqaUBKTNV-1">
          <mxGeometry x="74.99999999999999" y="2060" width="120" height="60" as="geometry" />
        </mxCell>
        <mxCell id="tbi-7l_ZZroE0bv09tCr-89" value="" style="edgeStyle=orthogonalEdgeStyle;rounded=0;orthogonalLoop=1;jettySize=auto;html=1;" edge="1" parent="WIyWlLk6GJQsqaUBKTNV-1" source="tbi-7l_ZZroE0bv09tCr-84" target="tbi-7l_ZZroE0bv09tCr-88">
          <mxGeometry relative="1" as="geometry" />
        </mxCell>
        <mxCell id="tbi-7l_ZZroE0bv09tCr-84" value="show order information" style="shape=parallelogram;perimeter=parallelogramPerimeter;whiteSpace=wrap;html=1;fixedSize=1;strokeWidth=2;" vertex="1" parent="WIyWlLk6GJQsqaUBKTNV-1">
          <mxGeometry x="230.01" y="2060" width="120" height="60" as="geometry" />
        </mxCell>
        <mxCell id="tbi-7l_ZZroE0bv09tCr-91" value="" style="edgeStyle=orthogonalEdgeStyle;rounded=0;orthogonalLoop=1;jettySize=auto;html=1;" edge="1" parent="WIyWlLk6GJQsqaUBKTNV-1" source="tbi-7l_ZZroE0bv09tCr-88" target="tbi-7l_ZZroE0bv09tCr-90">
          <mxGeometry relative="1" as="geometry" />
        </mxCell>
        <mxCell id="tbi-7l_ZZroE0bv09tCr-88" value="&lt;div&gt;ask user if they want&lt;/div&gt;&lt;div&gt;to continue shopping&lt;/div&gt;" style="shape=parallelogram;perimeter=parallelogramPerimeter;whiteSpace=wrap;html=1;fixedSize=1;strokeWidth=2;" vertex="1" parent="WIyWlLk6GJQsqaUBKTNV-1">
          <mxGeometry x="220.01999999999998" y="2160" width="139.98" height="60" as="geometry" />
        </mxCell>
        <mxCell id="tbi-7l_ZZroE0bv09tCr-92" style="edgeStyle=orthogonalEdgeStyle;rounded=0;orthogonalLoop=1;jettySize=auto;html=1;" edge="1" parent="WIyWlLk6GJQsqaUBKTNV-1" source="tbi-7l_ZZroE0bv09tCr-90">
          <mxGeometry relative="1" as="geometry">
            <mxPoint x="790" y="1039" as="targetPoint" />
          </mxGeometry>
        </mxCell>
        <mxCell id="tbi-7l_ZZroE0bv09tCr-93" value="" style="edgeStyle=orthogonalEdgeStyle;rounded=0;orthogonalLoop=1;jettySize=auto;html=1;" edge="1" parent="WIyWlLk6GJQsqaUBKTNV-1" source="tbi-7l_ZZroE0bv09tCr-90" target="tbi-7l_ZZroE0bv09tCr-4">
          <mxGeometry relative="1" as="geometry" />
        </mxCell>
        <mxCell id="tbi-7l_ZZroE0bv09tCr-90" value="continue shopping button pressed" style="rhombus;whiteSpace=wrap;html=1;strokeWidth=2;" vertex="1" parent="WIyWlLk6GJQsqaUBKTNV-1">
          <mxGeometry x="415.5" y="2150" width="120.02" height="80" as="geometry" />
        </mxCell>
      </root>
    </mxGraphModel>
  </diagram>
</mxfile>
